<svg width="44" height="44" viewBox="0 0 44 44" fill="none" xmlns="http://www.w3.org/2000/svg">
<path d="M43.9982 14.1508C43.9984 11.6002 43.3059 9.09699 41.994 6.90613C40.6821 4.71527 38.7997 2.91828 36.5459 1.70534C34.2922 0.492396 31.7509 -0.0913588 29.1912 0.0158576C26.6315 0.123074 24.1485 0.917273 22.005 2.31439C19.2654 0.527031 15.9897 -0.263203 12.7321 0.0774067C9.4746 0.418017 6.43528 1.86856 4.12847 4.18358C1.82166 6.49859 0.389032 9.53592 0.0730006 12.7816C-0.24303 16.0273 0.576946 19.282 2.39418 21.995C0.573683 24.7079 -0.248942 27.9639 0.06564 31.2114C0.380222 34.459 1.81267 37.4984 4.12036 39.815C6.42805 42.1316 9.46911 43.5828 12.7284 43.9229C15.9878 44.263 19.265 43.4711 22.005 41.6812C24.7451 43.4679 28.0211 44.2572 31.2785 43.9156C34.536 43.5741 37.5749 42.1227 39.8811 39.807C42.1872 37.4913 43.619 34.4536 43.9341 31.2078C44.2492 27.962 43.4282 24.7075 41.6102 21.995C43.1713 19.6745 44.0026 16.9437 43.9982 14.1508Z" fill="#FF512A"/>
</svg>
